HIERARCHY
ROOT Hips
{
	OFFSET -0.001795 -0.223333 0.028219
	CHANNELS 6 Xposition Yposition Zposition Zrotation Yrotation Xrotation 
	JOINT LeftUpLeg
	{
		OFFSET 0.069520 -0.091406 -0.006815
		CHANNELS 3 Zrotation Yrotation Xrotation
		JOINT LeftLeg
		{
			OFFSET 0.034277 -0.375199 -0.004496
			CHANNELS 3 Zrotation Yrotation Xrotation
			JOINT LeftFoot
			{
				OFFSET -0.013596 -0.397961 -0.043693
				CHANNELS 3 Zrotation Yrotation Xrotation
				JOINT LeftToe
				{
					OFFSET 0.026358 -0.055791 0.119288
					CHANNELS 3 Zrotation Yrotation Xrotation
					End Site
					{
						OFFSET 0.000000 0.000000 0.000000
					}
				}
			}
		}
	}
	JOINT RightUpLeg
	{
		OFFSET -0.067670 -0.090522 -0.004320
		CHANNELS 3 Zrotation Yrotation Xrotation
		JOINT RightLeg
		{
			OFFSET -0.038290 -0.382569 -0.008850
			CHANNELS 3 Zrotation Yrotation Xrotation
			JOINT RightFoot
			{
				OFFSET 0.015774 -0.398415 -0.042312
				CHANNELS 3 Zrotation Yrotation Xrotation
				JOINT RightToe
				{
					OFFSET -0.025372 -0.048144 0.123348
					CHANNELS 3 Zrotation Yrotation Xrotation
					End Site
					{
						OFFSET 0.000000 0.000000 0.000000
					}
				}
			}
		}
	}
	JOINT Spine
	{
		OFFSET -0.002533 0.108963 -0.026696
		CHANNELS 3 Zrotation Yrotation Xrotation
		JOINT Spine1
		{
			OFFSET 0.005487 0.135180 0.001092
			CHANNELS 3 Zrotation Yrotation Xrotation
			JOINT Spine2
			{
				OFFSET 0.001457 0.052922 0.025425
				CHANNELS 3 Zrotation Yrotation Xrotation
				JOINT Neck
				{
					OFFSET -0.002778 0.213870 -0.042857
					CHANNELS 3 Zrotation Yrotation Xrotation
					JOINT Head
					{
						OFFSET 0.005152 0.064970 0.051349
						CHANNELS 3 Zrotation Yrotation Xrotation
						End Site
						{
							OFFSET 0.000000 0.000000 0.000000
						}
					}
				}
				JOINT LeftShoulder
				{
					OFFSET 0.078845 0.121749 -0.034090
					CHANNELS 3 Zrotation Yrotation Xrotation
					JOINT LeftArm
					{
						OFFSET 0.090977 0.030469 -0.008868
						CHANNELS 3 Zrotation Yrotation Xrotation
						JOINT LeftForeArm
						{
							OFFSET 0.259612 -0.012772 -0.027456
							CHANNELS 3 Zrotation Yrotation Xrotation
							JOINT LeftHand
							{
								OFFSET 0.249234 0.008986 -0.001171
								CHANNELS 3 Zrotation Yrotation Xrotation
								End Site
								{
									OFFSET 0.000000 0.000000 0.000000
								}
							}
						}
					}
				}
				JOINT RightShoulder
				{
					OFFSET -0.081759 0.118833 -0.038615
					CHANNELS 3 Zrotation Yrotation Xrotation
					JOINT RightArm
					{
						OFFSET -0.096012 0.032551 -0.009143
						CHANNELS 3 Zrotation Yrotation Xrotation
						JOINT RightForeArm
						{
							OFFSET -0.253742 -0.013329 -0.021401
							CHANNELS 3 Zrotation Yrotation Xrotation
							JOINT RightHand
							{
								OFFSET -0.255298 0.007772 -0.005559
								CHANNELS 3 Zrotation Yrotation Xrotation
								End Site
								{
									OFFSET 0.000000 0.000000 0.000000
								}
							}
						}
					}
				}
			}
		}
	}
}
MOTION
Frames: 13
Frame Time: 0.050000
-0.036559 0.950743 -0.012209 1.372601 -2.391863 9.650726 8.532176 -0.386252 -7.974907 -6.294335 0.587321 -5.989694 7.536029 16.960788 22.976292 0.000000 0.000000 0.000000 -10.346010 0.638236 -8.802453 4.683093 -0.445423 -3.894758 -4.229728 -14.289393 19.868998 0.000000 0.000000 0.000000 9.327553 -0.834605 3.716718 -5.680044 2.141932 -13.491182 -7.094953 1.474794 27.224739 15.225676 -7.925128 -23.861424 0.000000 0.000000 0.000000 -4.532516 -22.043451 8.459491 -21.536036 -39.669694 1.732419 26.135942 -76.738195 -16.534975 0.000000 0.000000 0.000000 12.887166 3.994771 1.284730 28.167892 40.500245 3.619328 -84.168573 87.293407 -76.134508 0.000000 0.000000 0.000000 
-0.037202 0.950099 -0.011769 1.284340 -3.106916 9.777268 8.904128 -0.352379 -7.508986 -6.787091 0.614089 -6.746889 7.901350 17.336939 23.222214 0.000000 0.000000 0.000000 -10.129169 0.670898 -8.982997 4.440034 -0.421448 -4.046242 -3.910687 -13.861420 19.559877 0.000000 0.000000 0.000000 9.340511 -0.794952 3.383487 -5.991157 2.230154 -13.431851 -6.847741 1.931967 27.736018 15.204166 -8.117748 -23.156705 0.000000 0.000000 0.000000 -4.600470 -20.760250 7.990860 -23.222539 -38.559000 1.867692 35.702693 -79.821464 -25.368760 0.000000 0.000000 0.000000 12.492193 3.718694 1.170815 27.939861 42.702789 3.984566 -110.665132 84.497782 -99.707043 0.000000 0.000000 0.000000 
-0.037688 0.949610 -0.012200 1.082652 -3.876766 10.118575 9.191291 -0.332594 -8.024381 -6.912832 0.646414 -6.264222 8.411587 17.884923 23.301544 0.000000 0.000000 0.000000 -9.875531 0.714573 -9.434978 4.317158 -0.405028 -4.247970 -3.552119 -13.401322 19.414988 0.000000 0.000000 0.000000 9.383397 -0.823253 3.539378 -6.230582 2.281785 -13.629417 -6.488547 2.482271 27.529153 15.343708 -8.062500 -23.593076 0.000000 0.000000 0.000000 -5.456566 -20.108176 7.886402 -24.442684 -37.958628 2.004928 47.635530 -80.378455 -35.846329 0.000000 0.000000 0.000000 12.884844 3.672779 1.148373 28.903028 44.273432 4.638369 -96.832337 83.964708 -84.995163 0.000000 0.000000 0.000000 
-0.038154 0.949273 -0.013199 0.652102 -4.190981 10.262623 9.808945 -0.296073 -8.471882 -7.123995 0.680225 -5.685426 8.687160 18.188252 23.211851 0.000000 0.000000 0.000000 -9.354913 0.750022 -9.977084 4.244288 -0.396918 -3.764660 -3.402871 -13.202778 19.256432 0.000000 0.000000 0.000000 9.645613 -0.864991 3.704589 -6.462638 2.348387 -13.620121 -5.965785 2.545518 27.375481 15.241054 -7.986832 -23.715607 0.000000 0.000000 0.000000 -6.723505 -19.726194 7.962014 -25.897837 -38.236431 2.355752 51.744574 -79.825042 -38.906111 0.000000 0.000000 0.000000 13.788911 4.369600 1.443816 31.214150 44.996965 5.542882 -57.141549 85.248838 -47.654009 0.000000 0.000000 0.000000 
-0.038930 0.948858 -0.014459 0.628327 -3.883480 10.489325 10.065974 -0.295387 -9.124547 -7.359113 0.703376 -5.220945 8.584743 18.093183 23.071921 0.000000 0.000000 0.000000 -9.279615 0.753550 -10.190252 4.273789 -0.401590 -3.847759 -3.586792 -13.443073 19.239529 0.000000 0.000000 0.000000 9.759725 -0.866856 3.565850 -6.543206 2.389068 -13.335396 -5.854221 2.534097 27.052293 15.052737 -7.828911 -23.710164 0.000000 0.000000 0.000000 -8.586815 -20.328916 8.493381 -26.481518 -39.016306 2.641797 43.002350 -77.971981 -30.369913 0.000000 0.000000 0.000000 15.400238 4.877736 1.702871 34.899553 44.058936 6.478076 -4.028338 83.458052 1.824801 0.000000 0.000000 0.000000 
-0.040345 0.948653 -0.015609 0.337675 -3.776876 10.476055 10.690561 -0.258610 -9.462704 -7.692309 0.742088 -4.711290 8.579789 18.095573 22.983520 0.000000 0.000000 0.000000 -8.946857 0.765480 -10.393055 4.436846 -0.412327 -3.528340 -3.639358 -13.500294 19.139520 0.000000 0.000000 0.000000 10.037313 -0.896678 3.630715 -6.672082 2.443975 -13.032998 -5.439549 2.443097 26.727498 15.212640 -7.941001 -23.648119 0.000000 0.000000 0.000000 -10.151876 -20.869199 8.993583 -27.660872 -39.607358 3.050392 33.759638 -76.068282 -21.878328 0.000000 0.000000 0.000000 17.271685 5.501287 1.988181 38.470851 42.525150 7.128876 16.379936 78.350769 18.401690 0.000000 0.000000 0.000000 
-0.042386 0.948185 -0.016955 0.344726 -3.280221 10.474993 11.091747 -0.248311 -9.829596 -8.081751 0.773475 -4.388766 8.332628 17.838961 22.861046 0.000000 0.000000 0.000000 -8.822501 0.756928 -10.403128 4.508065 -0.422292 -3.472317 -3.923360 -13.850970 18.988196 0.000000 0.000000 0.000000 10.177061 -0.901756 3.539131 -6.667785 2.457648 -12.843062 -5.403225 2.162230 26.710389 14.858452 -7.825400 -23.215088 0.000000 0.000000 0.000000 -11.037028 -21.616417 9.475930 -27.904543 -40.100243 3.223360 26.231288 -74.017862 -15.360039 0.000000 0.000000 0.000000 18.248785 5.919399 2.208009 41.726573 40.638580 7.426643 22.472501 73.271325 21.494461 0.000000 0.000000 0.000000 
-0.044844 0.947935 -0.018561 0.163459 -3.139121 10.361168 11.629842 -0.214072 -9.907522 -8.355886 0.799249 -4.221893 8.258456 17.760794 22.891984 0.000000 0.000000 0.000000 -8.345497 0.768383 -10.481011 4.339081 -0.413415 -3.224200 -4.003130 -13.935925 18.781725 0.000000 0.000000 0.000000 10.259158 -0.929022 3.722941 -6.423200 2.382869 -12.739154 -5.320482 1.833042 26.401622 14.728750 -7.762550 -23.186043 0.000000 0.000000 0.000000 -10.998512 -22.079882 9.712083 -27.990350 -40.465033 3.369260 23.514624 -71.761474 -12.736970 0.000000 0.000000 0.000000 18.448480 6.192599 2.287301 43.956246 39.187358 7.550157 24.332663 69.351599 21.281267 0.000000 0.000000 0.000000 
-0.047277 0.947678 -0.020603 -0.052256 -2.935366 10.300747 12.131629 -0.180738 -10.228533 -8.488110 0.822344 -3.804149 8.175829 17.678028 22.871459 0.000000 0.000000 0.000000 -8.124440 0.774491 -10.619468 4.687262 -0.438967 -3.012271 -4.111068 -14.066193 18.675448 0.000000 0.000000 0.000000 10.638762 -0.946317 3.646996 -6.804019 2.523379 -12.554481 -5.123878 1.393113 26.546194 14.111957 -7.460267 -23.086007 0.000000 0.000000 0.000000 -10.520096 -22.487546 9.862998 -27.124385 -40.878198 3.258654 24.672996 -70.490185 -13.255156 0.000000 0.000000 0.000000 18.006779 6.800244 2.533163 44.421234 38.813331 7.528421 21.544353 66.829844 18.281759 0.000000 0.000000 0.000000 
-0.049309 0.947645 -0.022973 -0.208921 -2.846699 10.362654 12.423922 -0.161235 -10.449497 -8.425207 0.815192 -3.800400 8.130546 17.633211 23.013868 0.000000 0.000000 0.000000 -8.130169 0.794858 -11.262361 5.241638 -0.482831 -2.234445 -4.197142 -14.180931 18.575595 0.000000 0.000000 0.000000 10.509944 -0.906004 3.380457 -6.785978 2.524388 -12.399551 -4.732562 1.342948 26.560731 13.523844 -7.137707 -22.879507 0.000000 0.000000 0.000000 -9.704462 -22.954351 9.905803 -24.987536 -41.679538 2.897555 30.936051 -68.835755 -17.331794 0.000000 0.000000 0.000000 17.574529 6.857667 2.566862 43.558890 39.083864 7.392619 16.726404 65.748297 14.680432 0.000000 0.000000 0.000000 
-0.050755 0.947639 -0.025252 -0.264100 -2.723962 10.234740 12.504756 -0.154107 -10.528030 -8.267644 0.803042 -3.707595 8.050295 17.548539 23.070951 0.000000 0.000000 0.000000 -8.192062 0.797470 -11.608339 5.647534 -0.521640 -1.598790 -4.283958 -14.293370 18.491247 0.000000 0.000000 0.000000 10.524236 -0.944891 3.700445 -6.622860 2.472125 -12.417425 -4.718649 1.437876 26.372548 13.213905 -6.911040 -22.872056 0.000000 0.000000 0.000000 -8.209408 -22.559221 9.414676 -23.576602 -42.798443 2.748865 40.632601 -68.001200 -23.867246 0.000000 0.000000 0.000000 16.888043 7.532893 2.961397 40.884387 40.515586 7.198648 9.296701 65.107499 9.650157 0.000000 0.000000 0.000000 
-0.051564 0.947701 -0.027231 -0.187844 -2.706170 10.016369 12.355040 -0.162752 -10.329621 -8.058804 0.779300 -3.873830 7.994073 17.484617 23.166956 0.000000 0.000000 0.000000 -8.461659 0.782424 -11.684670 6.085137 -0.562283 -1.275317 -4.302588 -14.314088 18.462134 0.000000 0.000000 0.000000 10.278575 -0.934916 3.829947 -6.886970 2.560663 -12.539688 -4.462553 1.840879 26.580622 12.803106 -6.759091 -22.131676 0.000000 0.000000 0.000000 -5.992812 -22.237143 8.808583 -22.248198 -43.746966 2.535090 51.374535 -66.896716 -31.065556 0.000000 0.000000 0.000000 15.259383 8.015521 3.284340 37.664587 42.285646 6.857342 -2.350341 65.370141 2.281550 0.000000 0.000000 0.000000 
-0.051849 0.947903 -0.028628 -0.021055 -3.121998 9.794146 12.046519 -0.169281 -9.957278 -7.859349 0.763153 -4.114196 8.148364 17.636204 23.395990 0.000000 0.000000 0.000000 -8.874697 0.773267 -11.790955 6.491384 -0.595201 -0.974778 -4.108411 -14.052246 18.401334 0.000000 0.000000 0.000000 9.909338 -0.940352 4.179742 -7.022913 2.577108 -13.104555 -4.299294 2.559162 26.835143 13.200541 -6.924679 -22.244396 0.000000 0.000000 0.000000 -3.621948 -21.315222 7.983338 -22.106342 -43.601403 2.442928 62.149799 -66.800280 -39.005162 0.000000 0.000000 0.000000 13.322226 8.538595 3.586216 32.694090 44.849668 6.099566 -14.584492 66.071109 -5.592297 0.000000 0.000000 0.000000 
